{
  "accessors": [
    {
      "bufferView": 2,
      "componentType": 5126,
      "count": 1355,
      "max": [
        32.71609878540039,
        1.5884000062942505,
        7.435800075531006
      ],
      "min": [
        -29.350200653076172,
        -1.5757999420166016,
        -1.3466999530792236
      ],
      "type": "VEC3"
    },
    {
      "bufferView": 2,
      "byteOffset": 16260,
      "componentType": 5126,
      "count": 1355,
      "max": [
        1.0,
        1.0,
        1.0
      ],
      "min": [
        -1.0,
        -1.0,
        -1.0
      ],
      "type": "VEC3"
    },
    {
      "bufferView": 3,
      "componentType": 5126,
      "count": 1355,
      "max": [
        0.9998878836631775,
        1.0,
        0.9989910125732422,
        1.0
      ],
      "min": [
        -0.9953925609588623,
        -0.9999850392341614,
        -0.9999229907989502,
        -1.0
      ],
      "type": "VEC4"
    },
    {
      "bufferView": 1,
      "componentType": 5126,
      "count": 1355,
      "max": [
        0.9768000245094299,
        0.9983999729156494
      ],
      "min": [
        -0.00019999999494757503,
        0.0024999999441206455
      ],
      "type": "VEC2"
    },
    {
      "bufferView": 0,
      "componentType": 5125,
      "count": 6222,
      "type": "SCALAR"
    },
    {
      "bufferView": 2,
      "byteOffset": 32520,
      "componentType": 5126,
      "count": 256,
      "max": [
        26.118600845336914,
        40.46950149536133,
        12.429300308227539
      ],
      "min": [
        20.815200805664063,
        -15.962400436401367,
        0.018699999898672104
      ],
      "type": "VEC3"
    },
    {
      "bufferView": 2,
      "byteOffset": 35592,
      "componentType": 5126,
      "count": 256,
      "max": [
        0.9949657320976257,
        0.9914028644561768,
        0.997813880443573
      ],
      "min": [
        -0.9949724674224854,
        -0.9963411688804626,
        -0.9999550580978394
      ],
      "type": "VEC3"
    },
    {
      "bufferView": 3,
      "byteOffset": 21680,
      "componentType": 5126,
      "count": 256,
      "max": [
        0.9991552233695984,
        0.924283504486084,
        0.9987915754318237,
        1.0
      ],
      "min": [
        -0.9999219179153442,
        -0.9551157355308533,
        -0.995231032371521,
        1.0
      ],
      "type": "VEC4"
    },
    {
      "bufferView": 1,
      "byteOffset": 10840,
      "componentType": 5126,
      "count": 256,
      "max": [
        0.9592000246047974,
        0.9800999760627747
      ],
      "min": [
        0.18019999563694,
        0.0348999984562397
      ],
      "type": "VEC2"
    },
    {
      "bufferView": 0,
      "byteOffset": 24888,
      "componentType": 5125,
      "count": 1308,
      "type": "SCALAR"
    }
  ],
  "asset": {
    "extras": {
      "author": "Shedmon (https://sketchfab.com/shedmon)",
      "license": "CC-BY-4.0 (http://creativecommons.org/licenses/by/4.0/)",
      "source": "https://sketchfab.com/3d-models/lamp-b2ec3695097141be9855c6ab1ba1ee98",
      "title": "Lamp"
    },
    "generator": "Sketchfab-13.31.0",
    "version": "2.0"
  },
  "bufferViews": [
    {
      "buffer": 0,
      "byteLength": 30120,
      "name": "floatBufferViews",
      "target": 34963
    },
    {
      "buffer": 0,
      "byteLength": 12888,
      "byteOffset": 30120,
      "byteStride": 8,
      "name": "floatBufferViews",
      "target": 34962
    },
    {
      "buffer": 0,
      "byteLength": 38664,
      "byteOffset": 43008,
      "byteStride": 12,
      "name": "floatBufferViews",
      "target": 34962
    },
    {
      "buffer": 0,
      "byteLength": 25776,
      "byteOffset": 81672,
      "byteStride": 16,
      "name": "floatBufferViews",
      "target": 34962
    }
  ],
  "buffers": [
    {
      "byteLength": 107448,
      "uri": "scene.bin"
    }
  ],
  "images": [
    {
      "uri": "textures/Lamp_baseColor.png"
    },
    {
      "uri": "textures/Lamp_metallicRoughness.png"
    },
    {
      "uri": "textures/Lamp_emissive.png"
    },
    {
      "uri": "textures/Lamp_normal.png"
    }
  ],
  "materials": [
    {
      "doubleSided": true,
      "emissiveFactor": [
        1.0,
        1.0,
        1.0
      ],
      "emissiveTexture": {
        "index": 2
      },
      "name": "Lamp",
      "normalTexture": {
        "index": 3
      },
      "occlusionTexture": {
        "index": 1
      },
      "pbrMetallicRoughness": {
        "baseColorTexture": {
          "index": 0
        },
        "metallicRoughnessTexture": {
          "index": 1
        }
      }
    },
    {
      "doubleSided": true,
      "name": "glow_lamp",
      "normalTexture": {
        "index": 3
      },
      "occlusionTexture": {
        "index": 1
      },
      "pbrMetallicRoughness": {
        "baseColorTexture": {
          "index": 0
        },
        "metallicRoughnessTexture": {
          "index": 1
        }
      }
    }
  ],
  "meshes": [
    {
      "name": "Object_0",
      "primitives": [
        {
          "attributes": {
            "NORMAL": 1,
            "POSITION": 0,
            "TANGENT": 2,
            "TEXCOORD_0": 3
          },
          "indices": 4,
          "material": 0,
          "mode": 4
        }
      ]
    },
    {
      "name": "Object_1",
      "primitives": [
        {
          "attributes": {
            "NORMAL": 6,
            "POSITION": 5,
            "TANGENT": 7,
            "TEXCOORD_0": 8
          },
          "indices": 9,
          "material": 1,
          "mode": 4
        }
      ]
    }
  ],
  "nodes": [
    {
      "children": [
        1
      ],
      "matrix": [
        1.0,
        0.0,
        0.0,
        0.0,
        0.0,
        2.220446049250313e-16,
        -1.0,
        0.0,
        0.0,
        1.0,
        2.220446049250313e-16,
        0.0,
        0.0,
        0.0,
        0.0,
        1.0
      ],
      "name": "Sketchfab_model"
    },
    {
      "children": [
        2,
        3
      ],
      "name": "8316ce0781934aa7b8ceb73f9af26ea5.obj.cleaner.materialmerger.gles"
    },
    {
      "mesh": 0,
      "name": "Object_2"
    },
    {
      "mesh": 1,
      "name": "Object_3"
    }
  ],
  "samplers": [
    {
      "magFilter": 9729,
      "minFilter": 9987,
      "wrapS": 10497,
      "wrapT": 10497
    }
  ],
  "scene": 0,
  "scenes": [
    {
      "name": "Sketchfab_Scene",
      "nodes": [
        0
      ]
    }
  ],
  "textures": [
    {
      "sampler": 0,
      "source": 0
    },
    {
      "sampler": 0,
      "source": 1
    },
    {
      "sampler": 0,
      "source": 2
    },
    {
      "sampler": 0,
      "source": 3
    }
  ]
}
