# Blender v3.2.1 OBJ File: 'PC.blend'
# www.blender.org
mtllib Comp.mtl
o Cube_Cube.006
v -4.000000 -1.000000 4.000000
v -4.000000 1.000001 4.000000
v -4.000000 -1.000000 -4.000000
v -4.000000 1.000001 -4.000000
v 4.000000 -1.000000 4.000000
v 4.000000 1.000001 4.000000
v 4.000000 -1.000000 -4.000000
v 4.000000 1.000001 -4.000000
v 2.854009 1.000001 -2.854009
v -2.854009 1.000001 -2.854009
v -2.854009 1.000001 2.854009
v 2.854009 1.000001 2.854009
v -4.000000 1.000001 -4.000000
v 4.000000 1.000001 -4.000000
v 4.000000 1.000001 4.000000
v -4.000000 1.000001 4.000000
v -2.290504 2.000001 -2.290504
v 2.290504 2.000001 -2.290504
v 2.290504 2.000001 2.290504
v -2.290504 2.000001 2.290504
v -2.854009 2.000001 -2.854009
v 2.854009 2.000001 -2.854009
v 2.854009 2.000001 2.854009
v -2.854009 2.000001 2.854009
v -2.290504 3.000001 -2.290504
v 2.290504 3.000001 -2.290504
v 2.290504 3.000001 2.290504
v -2.290504 3.000001 2.290504
vt 0.375000 0.000000
vt 0.625000 0.000000
vt 0.625000 0.250000
vt 0.375000 0.250000
vt 0.625000 0.500000
vt 0.375000 0.500000
vt 0.625000 0.750000
vt 0.375000 0.750000
vt 0.625000 1.000000
vt 0.375000 1.000000
vt 0.125000 0.500000
vt 0.125000 0.750000
vt 0.660812 0.714188
vt 0.660812 0.535812
vt 0.660812 0.535812
vt 0.660812 0.714188
vt 0.875000 0.500000
vt 0.875000 0.500000
vt 0.625000 0.500000
vt 0.875000 0.750000
vt 0.875000 0.750000
vt 0.625000 0.750000
vt 0.839188 0.535812
vt 0.839188 0.714188
vt 0.678422 0.553422
vt 0.821578 0.553422
vt 0.821578 0.553422
vt 0.678422 0.553422
vt 0.839188 0.714188
vt 0.839188 0.535812
vt 0.678422 0.696578
vt 0.821578 0.696578
vt 0.821578 0.696578
vt 0.678422 0.696578
vn -1.0000 0.0000 0.0000
vn 0.0000 0.0000 -1.0000
vn 1.0000 0.0000 0.0000
vn 0.0000 0.0000 1.0000
vn 0.0000 -1.0000 0.0000
vn 0.0000 1.0000 0.0000
usemtl None
s off
f 1/1/1 2/2/1 4/3/1 3/4/1
f 3/4/2 4/3/2 8/5/2 7/6/2
f 7/6/3 8/5/3 6/7/3 5/8/3
f 5/8/4 6/7/4 2/9/4 1/10/4
f 3/11/5 7/6/5 5/8/5 1/12/5
f 12/13/3 9/14/3 22/15/3 23/16/3
f 8/5/4 4/17/4 13/18/4 14/19/4
f 4/17/4 2/20/4 16/21/4 13/18/4
f 2/20/4 6/7/4 15/22/4 16/21/4
f 6/7/4 8/5/4 14/19/4 15/22/4
f 10/23/6 9/14/6 14/19/6 13/18/6
f 9/14/6 12/13/6 15/22/6 14/19/6
f 11/24/6 10/23/6 13/18/6 16/21/6
f 12/13/6 11/24/6 16/21/6 15/22/6
f 18/25/2 17/26/2 25/27/2 26/28/2
f 10/23/1 11/24/1 24/29/1 21/30/1
f 9/14/2 10/23/2 21/30/2 22/15/2
f 11/24/4 12/13/4 23/16/4 24/29/4
f 17/26/6 18/25/6 22/15/6 21/30/6
f 18/25/6 19/31/6 23/16/6 22/15/6
f 20/32/6 17/26/6 21/30/6 24/29/6
f 19/31/6 20/32/6 24/29/6 23/16/6
f 26/28/6 25/27/6 28/33/6 27/34/6
f 20/32/4 19/31/4 27/34/4 28/33/4
f 19/31/3 18/25/3 26/28/3 27/34/3
f 17/26/1 20/32/1 28/33/1 25/27/1
o Cube.001_Cube.007
v -4.259912 2.980565 5.000000
v -3.705916 8.954936 5.000000
v -4.259912 2.980565 -5.000000
v -3.705916 8.954936 -5.000000
v 3.705916 2.241904 5.000000
v 4.259912 8.216275 5.000000
v 3.705916 2.241904 -5.000000
v 4.259912 8.216275 -5.000000
v -4.259912 2.980565 -5.000000
v -4.259912 2.980565 5.000000
v -3.705916 8.954936 5.000000
v -3.705916 8.954936 -5.000000
v 3.705916 2.241904 -5.000000
v 4.259912 8.216275 -5.000000
v 3.705916 2.241904 5.000000
v 4.259912 8.216275 5.000000
v -4.225488 3.351800 4.378621
v -3.740340 8.583701 4.378621
v -3.740340 8.583701 -4.378621
v -4.225488 3.351800 -4.378621
v -3.229759 3.259468 4.378621
v -2.744611 8.491368 4.378621
v -3.229759 3.259468 -4.378621
v -2.744611 8.491368 -4.378621
v -3.264183 2.888233 -5.000000
v -3.264183 2.888233 5.000000
v -2.710187 8.862603 5.000000
v -2.710187 8.862603 -5.000000
v -3.264183 2.888233 -5.000000
v -3.264183 2.888233 5.000000
v -2.710187 8.862603 5.000000
v -2.710187 8.862603 -5.000000
vt 0.875000 0.500000
vt 0.875000 0.750000
vt 0.875000 0.750000
vt 0.875000 0.500000
vt 0.375000 0.250000
vt 0.375000 0.500000
vt 0.625000 0.500000
vt 0.625000 0.250000
vt 0.375000 0.750000
vt 0.625000 0.750000
vt 0.375000 1.000000
vt 0.625000 1.000000
vt 0.125000 0.500000
vt 0.125000 0.750000
vt 0.609465 0.015534
vt 0.609465 0.234466
vt 0.609465 0.234466
vt 0.609465 0.015534
vt 0.375000 0.250000
vt 0.625000 0.250000
vt 0.625000 0.500000
vt 0.375000 0.500000
vt 0.625000 0.750000
vt 0.375000 0.750000
vt 0.625000 1.000000
vt 0.375000 1.000000
vt 0.125000 0.500000
vt 0.125000 0.750000
vt 0.875000 0.500000
vt 0.875000 0.750000
vt 0.375000 0.000000
vt 0.625000 0.000000
vt 0.390534 0.015534
vt 0.390534 0.234466
vt 0.390534 0.015534
vt 0.390534 0.234466
vt 0.375000 0.250000
vt 0.625000 0.250000
vt 0.625000 0.250000
vt 0.375000 0.250000
vt 0.125000 0.500000
vt 0.125000 0.750000
vt 0.375000 1.000000
vt 0.625000 1.000000
vt 0.375000 0.000000
vt 0.625000 0.000000
vt 0.375000 1.000000
vt 0.625000 1.000000
vt 0.875000 0.750000
vt 0.875000 0.500000
vt 0.125000 0.500000
vt 0.125000 0.750000
vn 0.0923 0.9957 0.0000
vn 0.0000 0.0000 1.0000
vn -0.9957 0.0923 0.0000
vn 0.0000 0.0000 -1.0000
vn -0.0923 -0.9957 0.0000
vn 0.9957 -0.0923 0.0000
usemtl None
s off
f 32/35/7 30/36/7 55/37/7 56/38/7
f 31/39/8 35/40/8 36/41/8 32/42/8
f 35/40/9 33/43/9 34/44/9 36/41/9
f 33/43/10 29/45/10 30/46/10 34/44/10
f 31/47/7 29/48/7 33/43/7 35/40/7
f 36/41/11 34/44/11 30/36/11 32/35/11
f 46/49/11 47/50/11 52/51/11 50/52/11
f 37/53/10 40/54/10 42/55/10 41/56/10
f 41/56/12 42/55/12 44/57/12 43/58/12
f 43/58/8 44/57/8 39/59/8 38/60/8
f 37/61/11 41/56/11 43/58/11 38/62/11
f 42/55/7 40/63/7 39/64/7 44/57/7
f 38/65/9 39/66/9 46/49/9 45/67/9
f 39/66/9 40/54/9 47/50/9 46/49/9
f 40/54/9 37/53/9 48/68/9 47/50/9
f 37/53/9 38/65/9 45/67/9 48/68/9
f 49/69/9 50/52/9 52/51/9 51/70/9
f 45/67/10 46/49/10 50/52/10 49/69/10
f 47/50/8 48/68/8 51/70/8 52/51/8
f 48/68/7 45/67/7 49/69/7 51/70/7
f 53/71/8 56/72/8 60/73/8 57/74/8
f 29/48/11 31/47/11 53/75/11 54/76/11
f 31/39/10 32/42/10 56/72/10 53/71/10
f 30/46/8 29/45/8 54/77/8 55/78/8
f 58/79/12 57/74/12 60/73/12 59/80/12
f 55/78/8 54/77/8 58/81/8 59/82/8
f 56/38/8 55/37/8 59/83/8 60/84/8
f 54/76/8 53/75/8 57/85/8 58/86/8
o Cylinder_Cylinder.005
v -4.285658 0.248104 1.500000
v -1.714342 0.248104 1.500000
v -4.285658 0.150559 1.509607
v -1.714342 0.150558 1.509607
v -4.285658 0.056762 1.538060
v -1.714342 0.056762 1.538060
v -4.285658 -0.029681 1.584265
v -1.714342 -0.029682 1.584265
v -4.285658 -0.105450 1.646447
v -1.714342 -0.105450 1.646447
v -4.285658 -0.167631 1.722215
v -1.714342 -0.167631 1.722215
v -4.285658 -0.213836 1.808658
v -1.714342 -0.213836 1.808658
v -4.285658 -0.242289 1.902455
v -1.714342 -0.242289 1.902455
v -4.285658 -0.251896 2.000000
v -1.714342 -0.251897 2.000000
v -4.285658 -0.242289 2.097545
v -1.714342 -0.242289 2.097545
v -4.285658 -0.213836 2.191342
v -1.714342 -0.213836 2.191342
v -4.285658 -0.167631 2.277785
v -1.714342 -0.167631 2.277785
v -4.285658 -0.105450 2.353553
v -1.714342 -0.105450 2.353553
v -4.285658 -0.029681 2.415735
v -1.714342 -0.029682 2.415735
v -4.285658 0.056762 2.461940
v -1.714342 0.056762 2.461940
v -4.285658 0.150559 2.490393
v -1.714342 0.150558 2.490393
v -4.285658 0.248104 2.500000
v -1.714342 0.248104 2.500000
v -4.285658 0.345649 2.490393
v -1.714342 0.345649 2.490393
v -4.285658 0.439445 2.461940
v -1.714342 0.439445 2.461940
v -4.285658 0.525889 2.415735
v -1.714342 0.525889 2.415735
v -4.285658 0.601657 2.353553
v -1.714342 0.601657 2.353553
v -4.285658 0.663839 2.277785
v -1.714342 0.663838 2.277785
v -4.285658 0.710043 2.191342
v -1.714342 0.710043 2.191342
v -4.285658 0.738496 2.097545
v -1.714342 0.738496 2.097545
v -4.285658 0.748104 2.000000
v -1.714342 0.748104 2.000000
v -4.285658 0.738496 1.902455
v -1.714342 0.738496 1.902455
v -4.285658 0.710043 1.808658
v -1.714342 0.710043 1.808658
v -4.285658 0.663839 1.722215
v -1.714342 0.663839 1.722215
v -4.285658 0.601657 1.646447
v -1.714342 0.601657 1.646447
v -4.285658 0.525889 1.584265
v -1.714342 0.525889 1.584265
v -4.285658 0.439445 1.538060
v -1.714342 0.439445 1.538060
v -4.285658 0.345649 1.509607
v -1.714342 0.345649 1.509607
vt 1.000000 0.500000
vt 1.000000 1.000000
vt 0.968750 1.000000
vt 0.968750 0.500000
vt 0.937500 1.000000
vt 0.937500 0.500000
vt 0.906250 1.000000
vt 0.906250 0.500000
vt 0.875000 1.000000
vt 0.875000 0.500000
vt 0.843750 1.000000
vt 0.843750 0.500000
vt 0.812500 1.000000
vt 0.812500 0.500000
vt 0.781250 1.000000
vt 0.781250 0.500000
vt 0.750000 1.000000
vt 0.750000 0.500000
vt 0.718750 1.000000
vt 0.718750 0.500000
vt 0.687500 1.000000
vt 0.687500 0.500000
vt 0.656250 1.000000
vt 0.656250 0.500000
vt 0.625000 1.000000
vt 0.625000 0.500000
vt 0.593750 1.000000
vt 0.593750 0.500000
vt 0.562500 1.000000
vt 0.562500 0.500000
vt 0.531250 1.000000
vt 0.531250 0.500000
vt 0.500000 1.000000
vt 0.500000 0.500000
vt 0.468750 1.000000
vt 0.468750 0.500000
vt 0.437500 1.000000
vt 0.437500 0.500000
vt 0.406250 1.000000
vt 0.406250 0.500000
vt 0.375000 1.000000
vt 0.375000 0.500000
vt 0.343750 1.000000
vt 0.343750 0.500000
vt 0.312500 1.000000
vt 0.312500 0.500000
vt 0.281250 1.000000
vt 0.281250 0.500000
vt 0.250000 1.000000
vt 0.250000 0.500000
vt 0.218750 1.000000
vt 0.218750 0.500000
vt 0.187500 1.000000
vt 0.187500 0.500000
vt 0.156250 1.000000
vt 0.156250 0.500000
vt 0.125000 1.000000
vt 0.125000 0.500000
vt 0.093750 1.000000
vt 0.093750 0.500000
vt 0.062500 1.000000
vt 0.062500 0.500000
vt 0.296822 0.485388
vt 0.250000 0.490000
vt 0.203178 0.485388
vt 0.158156 0.471731
vt 0.116663 0.449553
vt 0.080294 0.419706
vt 0.050447 0.383337
vt 0.028269 0.341844
vt 0.014612 0.296822
vt 0.010000 0.250000
vt 0.014612 0.203178
vt 0.028269 0.158156
vt 0.050447 0.116663
vt 0.080294 0.080294
vt 0.116663 0.050447
vt 0.158156 0.028269
vt 0.203178 0.014612
vt 0.250000 0.010000
vt 0.296822 0.014612
vt 0.341844 0.028269
vt 0.383337 0.050447
vt 0.419706 0.080294
vt 0.449553 0.116663
vt 0.471731 0.158156
vt 0.485388 0.203178
vt 0.490000 0.250000
vt 0.485388 0.296822
vt 0.471731 0.341844
vt 0.449553 0.383337
vt 0.419706 0.419706
vt 0.383337 0.449553
vt 0.341844 0.471731
vt 0.031250 1.000000
vt 0.031250 0.500000
vt 0.000000 1.000000
vt 0.000000 0.500000
vt 0.750000 0.490000
vt 0.796822 0.485388
vt 0.841844 0.471731
vt 0.883337 0.449553
vt 0.919706 0.419706
vt 0.949553 0.383337
vt 0.971731 0.341844
vt 0.985388 0.296822
vt 0.990000 0.250000
vt 0.985388 0.203178
vt 0.971731 0.158156
vt 0.949553 0.116663
vt 0.919706 0.080294
vt 0.883337 0.050447
vt 0.841844 0.028269
vt 0.796822 0.014612
vt 0.750000 0.010000
vt 0.703178 0.014612
vt 0.658156 0.028269
vt 0.616663 0.050447
vt 0.580294 0.080294
vt 0.550447 0.116663
vt 0.528269 0.158156
vt 0.514612 0.203178
vt 0.510000 0.250000
vt 0.514612 0.296822
vt 0.528269 0.341844
vt 0.550447 0.383337
vt 0.580294 0.419706
vt 0.616663 0.449553
vt 0.658156 0.471731
vt 0.703178 0.485388
vn -0.0000 -0.0980 -0.9952
vn -0.0000 -0.2903 -0.9569
vn -0.0000 -0.4714 -0.8819
vn -0.0000 -0.6344 -0.7730
vn -0.0000 -0.7730 -0.6344
vn -0.0000 -0.8819 -0.4714
vn -0.0000 -0.9569 -0.2903
vn -0.0000 -0.9952 -0.0980
vn -0.0000 -0.9952 0.0980
vn -0.0000 -0.9569 0.2903
vn -0.0000 -0.8819 0.4714
vn -0.0000 -0.7730 0.6344
vn -0.0000 -0.6344 0.7730
vn -0.0000 -0.4714 0.8819
vn 0.0000 -0.2903 0.9569
vn 0.0000 -0.0980 0.9952
vn 0.0000 0.0980 0.9952
vn 0.0000 0.2903 0.9569
vn 0.0000 0.4714 0.8819
vn 0.0000 0.6344 0.7730
vn 0.0000 0.7730 0.6344
vn 0.0000 0.8819 0.4714
vn 0.0000 0.9569 0.2903
vn 0.0000 0.9952 0.0980
vn 0.0000 0.9952 -0.0980
vn 0.0000 0.9569 -0.2903
vn 0.0000 0.8819 -0.4714
vn 0.0000 0.7730 -0.6344
vn 0.0000 0.6344 -0.7730
vn 0.0000 0.4714 -0.8819
vn 1.0000 -0.0000 0.0000
vn -0.0000 0.2903 -0.9569
vn 0.0000 0.0980 -0.9952
vn -1.0000 -0.0000 0.0000
usemtl None
s off
f 61/87/13 62/88/13 64/89/13 63/90/13
f 63/90/14 64/89/14 66/91/14 65/92/14
f 65/92/15 66/91/15 68/93/15 67/94/15
f 67/94/16 68/93/16 70/95/16 69/96/16
f 69/96/17 70/95/17 72/97/17 71/98/17
f 71/98/18 72/97/18 74/99/18 73/100/18
f 73/100/19 74/99/19 76/101/19 75/102/19
f 75/102/20 76/101/20 78/103/20 77/104/20
f 77/104/21 78/103/21 80/105/21 79/106/21
f 79/106/22 80/105/22 82/107/22 81/108/22
f 81/108/23 82/107/23 84/109/23 83/110/23
f 83/110/24 84/109/24 86/111/24 85/112/24
f 85/112/25 86/111/25 88/113/25 87/114/25
f 87/114/26 88/113/26 90/115/26 89/116/26
f 89/116/27 90/115/27 92/117/27 91/118/27
f 91/118/28 92/117/28 94/119/28 93/120/28
f 93/120/29 94/119/29 96/121/29 95/122/29
f 95/122/30 96/121/30 98/123/30 97/124/30
f 97/124/31 98/123/31 100/125/31 99/126/31
f 99/126/32 100/125/32 102/127/32 101/128/32
f 101/128/33 102/127/33 104/129/33 103/130/33
f 103/130/34 104/129/34 106/131/34 105/132/34
f 105/132/35 106/131/35 108/133/35 107/134/35
f 107/134/36 108/133/36 110/135/36 109/136/36
f 109/136/37 110/135/37 112/137/37 111/138/37
f 111/138/38 112/137/38 114/139/38 113/140/38
f 113/140/39 114/139/39 116/141/39 115/142/39
f 115/142/40 116/141/40 118/143/40 117/144/40
f 117/144/41 118/143/41 120/145/41 119/146/41
f 119/146/42 120/145/42 122/147/42 121/148/42
f 64/149/43 62/150/43 124/151/43 122/152/43 120/153/43 118/154/43 116/155/43 114/156/43 112/157/43 110/158/43 108/159/43 106/160/43 104/161/43 102/162/43 100/163/43 98/164/43 96/165/43 94/166/43 92/167/43 90/168/43 88/169/43 86/170/43 84/171/43 82/172/43 80/173/43 78/174/43 76/175/43 74/176/43 72/177/43 70/178/43 68/179/43 66/180/43
f 121/148/44 122/147/44 124/181/44 123/182/44
f 123/182/45 124/181/45 62/183/45 61/184/45
f 61/185/46 63/186/46 65/187/46 67/188/46 69/189/46 71/190/46 73/191/46 75/192/46 77/193/46 79/194/46 81/195/46 83/196/46 85/197/46 87/198/46 89/199/46 91/200/46 93/201/46 95/202/46 97/203/46 99/204/46 101/205/46 103/206/46 105/207/46 107/208/46 109/209/46 111/210/46 113/211/46 115/212/46 117/213/46 119/214/46 121/215/46 123/216/46
o Cube.013_Cube.022
v 3.160651 0.070481 3.667799
v 3.160651 0.570481 3.667799
v 3.160651 0.070481 2.667799
v 3.160651 0.570481 2.667799
v 4.160651 0.110263 3.588237
v 4.160651 0.530700 3.588237
v 4.160651 0.110263 2.747362
v 4.160651 0.530700 2.747362
v 4.160651 0.570481 2.667799
v 4.160651 0.070481 2.667799
v 4.160651 0.070481 3.667799
v 4.160651 0.570481 3.667799
v 4.087172 0.509296 2.790171
v 4.087172 0.131667 2.790171
v 4.087172 0.131667 3.545428
v 4.087172 0.509296 3.545428
v 4.087172 0.530700 2.747362
v 4.087172 0.110263 2.747362
v 4.087172 0.110263 3.588237
v 4.087172 0.530700 3.588237
v 4.170341 0.505906 2.796950
v 4.170341 0.135057 2.796950
v 4.170341 0.135057 3.538649
v 4.170341 0.505906 3.538649
v 4.170341 0.509296 2.790171
v 4.170341 0.131667 2.790171
v 4.170341 0.131667 3.545428
v 4.170341 0.509296 3.545428
v 4.099390 0.474101 2.860561
v 4.099390 0.166862 2.860561
v 4.099390 0.166862 3.475038
v 4.099390 0.474101 3.475038
v 4.099390 0.505906 2.796950
v 4.099390 0.135057 2.796950
v 4.099390 0.135057 3.538649
v 4.099390 0.505906 3.538649
v 4.021421 0.474101 2.860561
v 4.021421 0.166862 2.860561
v 4.021421 0.166862 3.475038
v 4.021421 0.474101 3.475038
vt 0.375000 0.000000
vt 0.625000 0.000000
vt 0.625000 0.250000
vt 0.375000 0.250000
vt 0.625000 0.500000
vt 0.375000 0.500000
vt 0.605109 0.519891
vt 0.605109 0.730109
vt 0.605109 0.730109
vt 0.605109 0.519891
vt 0.375000 0.750000
vt 0.625000 0.750000
vt 0.625000 1.000000
vt 0.375000 1.000000
vt 0.125000 0.500000
vt 0.125000 0.750000
vt 0.875000 0.500000
vt 0.875000 0.750000
vt 0.394891 0.519891
vt 0.394891 0.730109
vt 0.594407 0.530593
vt 0.594407 0.719407
vt 0.594407 0.719407
vt 0.594407 0.530593
vt 0.394891 0.519891
vt 0.394891 0.730109
vt 0.405593 0.530593
vt 0.405593 0.719407
vt 0.592712 0.717712
vt 0.407288 0.717712
vt 0.407288 0.717712
vt 0.592712 0.717712
vt 0.405593 0.530593
vt 0.405593 0.719407
vt 0.592712 0.532288
vt 0.407288 0.532288
vt 0.576810 0.548190
vt 0.576810 0.701810
vt 0.576810 0.701810
vt 0.576810 0.548190
vt 0.407288 0.532288
vt 0.592712 0.532288
vt 0.423190 0.548190
vt 0.423190 0.701810
vt 0.423190 0.548190
vt 0.423190 0.701810
vn -1.0000 0.0000 0.0000
vn 0.0000 0.0000 -1.0000
vn 0.0000 -1.0000 0.0000
vn 0.0000 0.0000 1.0000
vn 0.0000 1.0000 0.0000
vn 1.0000 0.0000 0.0000
vn 1.0000 -0.0001 0.0000
vn 1.0000 0.0001 0.0000
usemtl None
s off
f 125/217/47 126/218/47 128/219/47 127/220/47
f 127/220/48 128/219/48 133/221/48 134/222/48
f 132/223/49 130/224/49 144/225/49 141/226/49
f 135/227/50 136/228/50 126/229/50 125/230/50
f 127/231/49 134/222/49 135/227/49 125/232/49
f 133/221/51 128/233/51 126/234/51 136/228/51
f 132/223/52 131/235/52 134/222/52 133/221/52
f 131/235/52 129/236/52 135/227/52 134/222/52
f 130/224/52 132/223/52 133/221/52 136/228/52
f 129/236/52 130/224/52 136/228/52 135/227/52
f 137/237/51 140/238/51 152/239/51 149/240/51
f 131/235/50 132/223/50 141/226/50 142/241/50
f 130/224/48 129/236/48 143/242/48 144/225/48
f 129/236/51 131/235/51 142/241/51 143/242/51
f 137/237/52 138/243/52 142/241/52 141/226/52
f 138/243/52 139/244/52 143/242/52 142/241/52
f 140/238/52 137/237/52 141/226/52 144/225/52
f 139/244/52 140/238/52 144/225/52 143/242/52
f 148/245/48 147/246/48 159/247/48 160/248/48
f 138/243/48 137/237/48 149/240/48 150/249/48
f 140/238/50 139/244/50 151/250/50 152/239/50
f 139/244/49 138/243/49 150/249/49 151/250/49
f 145/251/52 146/252/52 150/249/52 149/240/52
f 146/252/53 147/246/53 151/250/53 150/249/53
f 148/245/54 145/251/54 149/240/54 152/239/54
f 147/246/52 148/245/52 152/239/52 151/250/52
f 153/253/49 156/254/49 164/255/49 161/256/49
f 147/246/51 146/252/51 158/257/51 159/247/51
f 145/251/49 148/245/49 160/248/49 157/258/49
f 146/252/50 145/251/50 157/258/50 158/257/50
f 153/253/52 154/259/52 158/257/52 157/258/52
f 154/259/52 155/260/52 159/247/52 158/257/52
f 156/254/52 153/253/52 157/258/52 160/248/52
f 155/260/52 156/254/52 160/248/52 159/247/52
f 162/261/52 161/256/52 164/255/52 163/262/52
f 154/259/50 153/253/50 161/256/50 162/261/50
f 156/254/48 155/260/48 163/262/48 164/255/48
f 155/260/51 154/259/51 162/261/51 163/262/51
